<svg width="1920" height="738" viewBox="0 0 1920 738" fill="none" xmlns="http://www.w3.org/2000/svg">
<path d="M0 0H1920V738L0 663.028V0Z" fill="white"/>
<mask id="mask0" mask-type="alpha" maskUnits="userSpaceOnUse" x="0" y="0" width="1920" height="738">
<path d="M0 0H1920V738L0 663.028V0Z" fill="white"/>
</mask>
<g mask="url(#mask0)">
<g opacity="0.51">
<g opacity="0.51">
<path opacity="0.51" d="M1895.41 -49.3673H1893.75V787.367H1895.41V-49.3673Z" fill="#FFCF74"/>
</g>
<g opacity="0.51">
<path opacity="0.51" d="M1864.55 -49.3673H1862.87V787.367H1864.55V-49.3673Z" fill="#FFCF74"/>
</g>
<g opacity="0.51">
<path opacity="0.51" d="M1833.65 -49.3673H1831.99V787.367H1833.65V-49.3673Z" fill="#FFCF74"/>
</g>
<g opacity="0.51">
<path opacity="0.51" d="M1802.77 -49.3673H1801.09V787.367H1802.77V-49.3673Z" fill="#FFCF74"/>
</g>
<g opacity="0.51">
<path opacity="0.51" d="M1771.89 -49.3673H1770.21V787.367H1771.89V-49.3673Z" fill="#FFCF74"/>
</g>
<g opacity="0.51">
<path opacity="0.51" d="M1741.01 -49.3673H1739.33V787.367H1741.01V-49.3673Z" fill="#FFCF74"/>
</g>
<g opacity="0.51">
<path opacity="0.51" d="M1710.11 -49.3673H1708.44V787.367H1710.11V-49.3673Z" fill="#FFCF74"/>
</g>
<g opacity="0.51">
<path opacity="0.51" d="M1679.24 -49.3673H1677.56V787.367H1679.24V-49.3673Z" fill="#FFCF74"/>
</g>
<g opacity="0.51">
<path opacity="0.51" d="M1648.35 -49.3673H1646.67V787.367H1648.35V-49.3673Z" fill="#FFCF74"/>
</g>
<g opacity="0.51">
<path opacity="0.51" d="M1617.45 -49.3673H1615.79V787.367H1617.45V-49.3673Z" fill="#FFCF74"/>
</g>
<g opacity="0.51">
<path opacity="0.51" d="M1586.58 -49.3673H1584.9V787.367H1586.58V-49.3673Z" fill="#FFCF74"/>
</g>
<g opacity="0.51">
<path opacity="0.51" d="M1555.69 -49.3673H1554.03V787.367H1555.69V-49.3673Z" fill="#FFCF74"/>
</g>
<g opacity="0.51">
<path opacity="0.51" d="M1524.81 -49.3673H1523.13V787.367H1524.81V-49.3673Z" fill="#FFCF74"/>
</g>
<g opacity="0.51">
<path opacity="0.51" d="M1493.92 -49.3673H1492.26V787.367H1493.92V-49.3673Z" fill="#FFCF74"/>
</g>
<g opacity="0.51">
<path opacity="0.51" d="M1463.04 -49.3673H1461.37V787.367H1463.04V-49.3673Z" fill="#FFCF74"/>
</g>
<g opacity="0.51">
<path opacity="0.51" d="M1432.15 -49.3673H1430.49V787.367H1432.15V-49.3673Z" fill="#FFCF74"/>
</g>
<g opacity="0.51">
<path opacity="0.51" d="M1401.27 -49.3673H1399.6V787.367H1401.27V-49.3673Z" fill="#FFCF74"/>
</g>
<g opacity="0.51">
<path opacity="0.51" d="M1370.38 -49.3673H1368.71V787.367H1370.38V-49.3673Z" fill="#FFCF74"/>
</g>
<g opacity="0.51">
<path opacity="0.51" d="M1339.51 -49.3673H1337.83V787.367H1339.51V-49.3673Z" fill="#FFCF74"/>
</g>
<g opacity="0.51">
<path opacity="0.51" d="M1308.62 -49.3673H1306.94V787.367H1308.62V-49.3673Z" fill="#FFCF74"/>
</g>
<g opacity="0.51">
<path opacity="0.51" d="M1277.75 -49.3673H1276.07V787.367H1277.75V-49.3673Z" fill="#FFCF74"/>
</g>
<g opacity="0.51">
<path opacity="0.51" d="M1246.85 -49.3673H1245.17V787.367H1246.85V-49.3673Z" fill="#FFCF74"/>
</g>
<g opacity="0.51">
<path opacity="0.51" d="M1215.97 -49.3673H1214.29V787.367H1215.97V-49.3673Z" fill="#FFCF74"/>
</g>
<g opacity="0.51">
<path opacity="0.51" d="M1185.08 -49.3673H1183.41V787.367H1185.08V-49.3673Z" fill="#FFCF74"/>
</g>
<g opacity="0.51">
<path opacity="0.51" d="M1154.19 -49.3673H1152.53V787.367H1154.19V-49.3673Z" fill="#FFCF74"/>
</g>
<g opacity="0.51">
<path opacity="0.51" d="M1123.31 -49.3673H1121.63V787.367H1123.31V-49.3673Z" fill="#FFCF74"/>
</g>
<g opacity="0.51">
<path opacity="0.51" d="M1092.42 -49.3673H1090.76V787.367H1092.42V-49.3673Z" fill="#FFCF74"/>
</g>
<g opacity="0.51">
<path opacity="0.51" d="M1061.54 -49.3673H1059.87V787.367H1061.54V-49.3673Z" fill="#FFCF74"/>
</g>
<g opacity="0.51">
<path opacity="0.51" d="M1030.65 -49.3673H1028.99V787.367H1030.65V-49.3673Z" fill="#FFCF74"/>
</g>
<g opacity="0.51">
<path opacity="0.51" d="M999.773 -49.3673H998.1V787.367H999.773V-49.3673Z" fill="#FFCF74"/>
</g>
<g opacity="0.51">
<path opacity="0.51" d="M968.887 -49.3673H967.22V787.367H968.887V-49.3673Z" fill="#FFCF74"/>
</g>
<g opacity="0.51">
<path opacity="0.51" d="M938 -49.3673H936.333V787.367H938V-49.3673Z" fill="#FFCF74"/>
</g>
<g opacity="0.51">
<path opacity="0.51" d="M907.12 -49.3673H905.453V787.367H907.12V-49.3673Z" fill="#FFCF74"/>
</g>
<g opacity="0.51">
<path opacity="0.51" d="M876.233 -49.3673H874.56V787.367H876.233V-49.3673Z" fill="#FFCF74"/>
</g>
<g opacity="0.51">
<path opacity="0.51" d="M845.347 -49.3673H843.673V787.367H845.347V-49.3673Z" fill="#FFCF74"/>
</g>
<g opacity="0.51">
<path opacity="0.51" d="M814.467 -49.3673H812.793V787.367H814.467V-49.3673Z" fill="#FFCF74"/>
</g>
<g opacity="0.51">
<path opacity="0.51" d="M783.58 -49.3673H781.907V787.367H783.58V-49.3673Z" fill="#FFCF74"/>
</g>
<g opacity="0.51">
<path opacity="0.51" d="M752.7 -49.3673H751.02V787.367H752.7V-49.3673Z" fill="#FFCF74"/>
</g>
<g opacity="0.51">
<path opacity="0.51" d="M721.82 -49.3673H720.14V787.367H721.82V-49.3673Z" fill="#FFCF74"/>
</g>
<g opacity="0.51">
<path opacity="0.51" d="M690.933 -49.3673H689.253V787.367H690.933V-49.3673Z" fill="#FFCF74"/>
</g>
<g opacity="0.51">
<path opacity="0.51" d="M660.04 -49.3673H658.373V787.367H660.04V-49.3673Z" fill="#FFCF74"/>
</g>
<g opacity="0.51">
<path opacity="0.51" d="M629.153 -49.3673H627.487V787.367H629.153V-49.3673Z" fill="#FFCF74"/>
</g>
<g opacity="0.51">
<path opacity="0.51" d="M598.273 -49.3673H596.607V787.367H598.273V-49.3673Z" fill="#FFCF74"/>
</g>
<g opacity="0.51">
<path opacity="0.51" d="M567.387 -49.3673H565.72V787.367H567.387V-49.3673Z" fill="#FFCF74"/>
</g>
<g opacity="0.51">
<path opacity="0.51" d="M536.5 -49.3673H534.833V787.367H536.5V-49.3673Z" fill="#FFCF74"/>
</g>
<g opacity="0.51">
<path opacity="0.51" d="M505.62 -49.3673H503.953V787.367H505.62V-49.3673Z" fill="#FFCF74"/>
</g>
<g opacity="0.51">
<path opacity="0.51" d="M474.74 -49.3673H473.06V787.367H474.74V-49.3673Z" fill="#FFCF74"/>
</g>
<g opacity="0.51">
<path opacity="0.51" d="M443.86 -49.3673H442.18V787.367H443.86V-49.3673Z" fill="#FFCF74"/>
</g>
<g opacity="0.51">
<path opacity="0.51" d="M412.973 -49.3673H411.293V787.367H412.973V-49.3673Z" fill="#FFCF74"/>
</g>
<g opacity="0.51">
<path opacity="0.51" d="M382.087 -49.3673H380.407V787.367H382.087V-49.3673Z" fill="#FFCF74"/>
</g>
<g opacity="0.51">
<path opacity="0.51" d="M351.193 -49.3673H349.527V787.367H351.193V-49.3673Z" fill="#FFCF74"/>
</g>
<g opacity="0.51">
<path opacity="0.51" d="M320.307 -49.3673H318.64V787.367H320.307V-49.3673Z" fill="#FFCF74"/>
</g>
<g opacity="0.51">
<path opacity="0.51" d="M289.427 -49.3673H287.76V787.367H289.427V-49.3673Z" fill="#FFCF74"/>
</g>
<g opacity="0.51">
<path opacity="0.51" d="M258.54 -49.3673H256.873V787.367H258.54V-49.3673Z" fill="#FFCF74"/>
</g>
<g opacity="0.51">
<path opacity="0.51" d="M227.66 -49.3673H225.993V787.367H227.66V-49.3673Z" fill="#FFCF74"/>
</g>
<g opacity="0.51">
<path opacity="0.51" d="M196.773 -49.3673H195.107V787.367H196.773V-49.3673Z" fill="#FFCF74"/>
</g>
<g opacity="0.51">
<path opacity="0.51" d="M165.887 -49.3673H164.22V787.367H165.887V-49.3673Z" fill="#FFCF74"/>
</g>
<g opacity="0.51">
<path opacity="0.51" d="M135.007 -49.3673H133.34V787.367H135.007V-49.3673Z" fill="#FFCF74"/>
</g>
<g opacity="0.51">
<path opacity="0.51" d="M104.127 -49.3673H102.447V787.367H104.127V-49.3673Z" fill="#FFCF74"/>
</g>
<g opacity="0.51">
<path opacity="0.51" d="M73.2401 -49.3673H71.5601V787.367H73.2401V-49.3673Z" fill="#FFCF74"/>
</g>
<g opacity="0.51">
<path opacity="0.51" d="M42.3599 -49.3673H40.6799V787.367H42.3599V-49.3673Z" fill="#FFCF74"/>
</g>
<g opacity="0.51">
<path opacity="0.51" d="M11.4733 -49.3673H9.79333V787.367H11.4733V-49.3673Z" fill="#FFCF74"/>
</g>
<g opacity="0.51">
<path opacity="0.51" d="M1960 3.21313H-40V4.63H1960V3.21313Z" fill="#FFCF74"/>
</g>
<g opacity="0.51">
<path opacity="0.51" d="M1960 29.3304H-40V30.7473H1960V29.3304Z" fill="#FFCF74"/>
</g>
<g opacity="0.51">
<path opacity="0.51" d="M1960 55.4365H-40V56.8534H1960V55.4365Z" fill="#FFCF74"/>
</g>
<g opacity="0.51">
<path opacity="0.51" d="M1960 81.5482H-40V82.9651H1960V81.5482Z" fill="#FFCF74"/>
</g>
<g opacity="0.51">
<path opacity="0.51" d="M1960 107.665H-40V109.077H1960V107.665Z" fill="#FFCF74"/>
</g>
<g opacity="0.51">
<path opacity="0.51" d="M1960 133.772H-40V135.188H1960V133.772Z" fill="#FFCF74"/>
</g>
<g opacity="0.51">
<path opacity="0.51" d="M1960 159.883H-40V161.3H1960V159.883Z" fill="#FFCF74"/>
</g>
<g opacity="0.51">
<path opacity="0.51" d="M1960 186.001H-40V187.412H1960V186.001Z" fill="#FFCF74"/>
</g>
<g opacity="0.51">
<path opacity="0.51" d="M1960 212.107H-40V213.524H1960V212.107Z" fill="#FFCF74"/>
</g>
<g opacity="0.51">
<path opacity="0.51" d="M1960 238.218H-40V239.624H1960V238.218Z" fill="#FFCF74"/>
</g>
<g opacity="0.51">
<path opacity="0.51" d="M1960 264.325H-40V265.741H1960V264.325Z" fill="#FFCF74"/>
</g>
<g opacity="0.51">
<path opacity="0.51" d="M1960 290.442H-40V291.859H1960V290.442Z" fill="#FFCF74"/>
</g>
<g opacity="0.51">
<path opacity="0.51" d="M1960 316.554H-40V317.959H1960V316.554Z" fill="#FFCF74"/>
</g>
<g opacity="0.51">
<path opacity="0.51" d="M1960 342.66H-40V344.077H1960V342.66Z" fill="#FFCF74"/>
</g>
<g opacity="0.51">
<path opacity="0.51" d="M1960 368.777H-40V370.188H1960V368.777Z" fill="#FFCF74"/>
</g>
<g opacity="0.51">
<path opacity="0.51" d="M1960 394.889H-40V396.305H1960V394.889Z" fill="#FFCF74"/>
</g>
<g opacity="0.51">
<path opacity="0.51" d="M1960 420.995H-40V422.412H1960V420.995Z" fill="#FFCF74"/>
</g>
<g opacity="0.51">
<path opacity="0.51" d="M1960 447.107H-40V448.523H1960V447.107Z" fill="#FFCF74"/>
</g>
<g opacity="0.51">
<path opacity="0.51" d="M1960 473.224H-40V474.641H1960V473.224Z" fill="#FFCF74"/>
</g>
<g opacity="0.51">
<path opacity="0.51" d="M1960 499.33H-40V500.747H1960V499.33Z" fill="#FFCF74"/>
</g>
<g opacity="0.51">
<path opacity="0.51" d="M1960 525.442H-40V526.858H1960V525.442Z" fill="#FFCF74"/>
</g>
<g opacity="0.51">
<path opacity="0.51" d="M1960 551.559H-40V552.959H1960V551.559Z" fill="#FFCF74"/>
</g>
<g opacity="0.51">
<path opacity="0.51" d="M1960 577.665H-40V579.082H1960V577.665Z" fill="#FFCF74"/>
</g>
<g opacity="0.51">
<path opacity="0.51" d="M1960 603.777H-40V605.194H1960V603.777Z" fill="#FFCF74"/>
</g>
<g opacity="0.51">
<path opacity="0.51" d="M1960 629.894H-40V631.3H1960V629.894Z" fill="#FFCF74"/>
</g>
<g opacity="0.51">
<path opacity="0.51" d="M1960 656H-40V657.417H1960V656Z" fill="#FFCF74"/>
</g>
<g opacity="0.51">
<path opacity="0.51" d="M1960 682.106H-40V683.523H1960V682.106Z" fill="#FFCF74"/>
</g>
<g opacity="0.51">
<path opacity="0.51" d="M1960 708.229H-40V709.635H1960V708.229Z" fill="#FFCF74"/>
</g>
<g opacity="0.51">
<path opacity="0.51" d="M1960 734.335H-40V735.752H1960V734.335Z" fill="#FFCF74"/>
</g>
</g>
</g>
</svg>
